<svg id="Слой_1" data-name="Слой 1" xmlns="http://www.w3.org/2000/svg" viewBox="0 0 1517.89 99.93"><defs><style>.cls-1{isolation:isolate;}.cls-2{fill:#676f75;}</style></defs><title>2</title><g class="cls-1"><path class="cls-2" d="M86.14,18.48l-43,39,45.15,56.4H76.63L36.71,63.63,18.49,80.24v33.62h-9V18.48h9V69.79L74.08,18.48Z" transform="translate(-9.51 -16.2)"/><path class="cls-2" d="M96.85,18.48h40.86q13.8,0,21.9,6.9t8.11,19.89q0,13.67-8.17,20.77t-22.11,7.1H106v40.72H96.85ZM106,26.25V65.5H134.9q10.57,0,17.14-4.76t6.57-14.8q0-9.91-6-14.8t-16.75-4.89Z" transform="translate(-9.51 -16.2)"/><path class="cls-2" d="M218.62,18.21l38.05,95.65H246.62l-11.52-30H191.43l-11.66,30H170l38.58-95.65Zm13.67,58.28-18.76-49.7-19.29,49.7Z" transform="translate(-9.51 -16.2)"/><path class="cls-2" d="M345.48,77.29Q344,95,332.82,105.49T304.49,116q-19.83,0-31.75-13.53T260.82,66.3q0-21.16,11.85-35.63T305.29,16.2a42.36,42.36,0,0,1,25.92,8.51,31.37,31.37,0,0,1,13.06,22.44h-9.11a27.12,27.12,0,0,0-10.31-16.81Q316.67,24.1,305,24.11q-15.81,0-25.52,11.58T269.79,66.3q0,19,9.58,30.48t25.38,11.45q13.8,0,22-8.5t9.78-22.44Z" transform="translate(-9.51 -16.2)"/><path class="cls-2" d="M359.54,113.86V18.48h9.11v85.6l54.12-85.6h11.79v95.38h-9.11V28.26l-54.12,85.6Z" transform="translate(-9.51 -16.2)"/><path class="cls-2" d="M453.85,18.48h40.86q12.85,0,21.37,5.89t8.5,18a20.89,20.89,0,0,1-4.75,13.52,20.72,20.72,0,0,1-11.72,7.51,27.69,27.69,0,0,1,14.53,7.37q5.7,5.63,5.69,15.8,0,13.26-9.17,20.3t-23.11,7h-42.2Zm8.84,7.77V60.68H493q9.51,0,16.07-4t6.57-13.13a17.72,17.72,0,0,0-2.08-9,12.59,12.59,0,0,0-6-5.36,30.21,30.21,0,0,0-7.84-2.35,61.72,61.72,0,0,0-9.17-.6Zm0,41.8v38h28.54a66.74,66.74,0,0,0,10.11-.67,34.39,34.39,0,0,0,8.71-2.61,14.52,14.52,0,0,0,6.76-6,19.55,19.55,0,0,0,2.41-10.11A18,18,0,0,0,516.75,77a14.35,14.35,0,0,0-7-5.76,40.67,40.67,0,0,0-9-2.47,67.21,67.21,0,0,0-10.05-.67Z" transform="translate(-9.51 -16.2)"/><path class="cls-2" d="M581,18.21l38,95.65H609l-11.52-30H553.78l-11.65,30h-9.78l38.58-95.65Zm13.66,58.28-18.75-49.7L556.6,76.49Z" transform="translate(-9.51 -16.2)"/><path class="cls-2" d="M663.09,71.53l-32.82,42.33H618.49l32.82-42.33q-12.73-.41-20.16-7.44t-7.44-19.22q0-12.46,7.77-19.42t21.17-7H692.7v95.38h-9.11V71.53Zm20.5-7.77V26.25H654.66q-10.18,0-16,4.76t-5.83,13.86q0,9.1,5.83,14t16,4.89Z" transform="translate(-9.51 -16.2)"/><path class="cls-2" d="M819.69,113.86h-9.11V26.25H772.14L770.4,82.38q-.95,33.5-20.1,33.49a23.79,23.79,0,0,1-9.64-1.88v-7.5c1.69,1.07,4.82,1.61,9.37,1.61q5.49,0,8.31-6.83T761.69,77l1.87-58.54h56.13Z" transform="translate(-9.51 -16.2)"/><path class="cls-2" d="M878.5,16.2q20,0,32.49,13.93t12.52,36.31q0,22.23-12.46,36t-32.68,13.73q-20.1,0-32.42-13.8T833.62,66.17Q833.62,43.8,846,30T878.5,16.2Zm-.13,7.91q-15.95,0-25.79,11.52T842.73,65.9q0,19.16,9.78,30.75t26,11.58q16.2,0,26-11.52T914.4,66.3q0-18.88-9.91-30.54T878.37,24.11Z" transform="translate(-9.51 -16.2)"/><path class="cls-2" d="M946.69,113.86h-9V18.48h59.08v7.77h-50.1Z" transform="translate(-9.51 -16.2)"/><path class="cls-2" d="M1007.37,113.86V18.48h9.11v85.6l54.12-85.6h11.79v95.38h-9.11V28.26l-54.12,85.6Z" transform="translate(-9.51 -16.2)"/><path class="cls-2" d="M1181.92,77.29q-1.49,17.68-12.66,28.2T1140.93,116q-19.83,0-31.75-13.53T1097.26,66.3q0-21.16,11.85-35.63t32.62-14.47a42.36,42.36,0,0,1,25.92,8.51,31.37,31.37,0,0,1,13.06,22.44h-9.11a27.12,27.12,0,0,0-10.31-16.81q-8.18-6.24-19.83-6.23-15.81,0-25.52,11.58t-9.71,30.61q0,19,9.58,30.48t25.38,11.45q13.8,0,22-8.5t9.78-22.44Z" transform="translate(-9.51 -16.2)"/><path class="cls-2" d="M1261.62,18.48v7.77h-33.49v87.61H1219V26.25h-33.49V18.48Z" transform="translate(-9.51 -16.2)"/><path class="cls-2" d="M1270.46,113.86V18.48h9.11v85.6l54.12-85.6h11.79v95.38h-9.11V28.26l-54.12,85.6Z" transform="translate(-9.51 -16.2)"/><path class="cls-2" d="M1441.26,18.48l-43,39,45.15,56.4h-11.66l-39.92-50.23-18.22,16.61v33.62h-9V18.48h9V69.79l55.6-51.31Z" transform="translate(-9.51 -16.2)"/><path class="cls-2" d="M1489.35,18.21l38.05,95.65h-10.05l-11.52-30h-43.67l-11.65,30h-9.78l38.58-95.65ZM1503,76.49l-18.76-49.7L1465,76.49Z" transform="translate(-9.51 -16.2)"/></g></svg>